<mxfile host="app.diagrams.net" modified="2023-09-06T11:49:21.476Z" agent="Mozilla/5.0 (Windows NT 10.0; Win64; x64) AppleWebKit/537.36 (KHTML, like Gecko) Chrome/116.0.0.0 Safari/537.36 Edg/116.0.1938.69" etag="60UUWSmjFSe2SX6lWwLY" version="21.7.2" type="device">
  <diagram id="X6LWghG_PwwFKbUc4vge" name="Страница — 1">
    <mxGraphModel dx="1386" dy="793" grid="1" gridSize="10" guides="1" tooltips="1" connect="1" arrows="1" fold="1" page="1" pageScale="1" pageWidth="827" pageHeight="1169" math="0" shadow="0">
      <root>
        <mxCell id="0" />
        <mxCell id="1" parent="0" />
        <mxCell id="Cf_0SbYmezYFUAePnX9f-1" style="edgeStyle=orthogonalEdgeStyle;rounded=0;orthogonalLoop=1;jettySize=auto;html=1;exitX=0.5;exitY=1;exitDx=0;exitDy=0;entryX=0.5;entryY=0;entryDx=0;entryDy=0;" edge="1" parent="1" source="Cf_0SbYmezYFUAePnX9f-2" target="Cf_0SbYmezYFUAePnX9f-4">
          <mxGeometry relative="1" as="geometry" />
        </mxCell>
        <mxCell id="Cf_0SbYmezYFUAePnX9f-2" value="START" style="ellipse;whiteSpace=wrap;html=1;" vertex="1" parent="1">
          <mxGeometry x="320" y="30" width="120" height="80" as="geometry" />
        </mxCell>
        <mxCell id="Cf_0SbYmezYFUAePnX9f-3" style="edgeStyle=orthogonalEdgeStyle;rounded=0;orthogonalLoop=1;jettySize=auto;html=1;exitX=0.5;exitY=1;exitDx=0;exitDy=0;" edge="1" parent="1" source="Cf_0SbYmezYFUAePnX9f-4" target="Cf_0SbYmezYFUAePnX9f-6">
          <mxGeometry relative="1" as="geometry" />
        </mxCell>
        <mxCell id="Cf_0SbYmezYFUAePnX9f-4" value="len,&amp;nbsp;&lt;br&gt;strArray[len]" style="shape=parallelogram;perimeter=parallelogramPerimeter;whiteSpace=wrap;html=1;fixedSize=1;" vertex="1" parent="1">
          <mxGeometry x="320" y="150" width="120" height="60" as="geometry" />
        </mxCell>
        <mxCell id="Cf_0SbYmezYFUAePnX9f-5" style="edgeStyle=orthogonalEdgeStyle;rounded=0;orthogonalLoop=1;jettySize=auto;html=1;exitX=0.5;exitY=1;exitDx=0;exitDy=0;entryX=0.5;entryY=0;entryDx=0;entryDy=0;" edge="1" parent="1" source="Cf_0SbYmezYFUAePnX9f-6" target="Cf_0SbYmezYFUAePnX9f-9">
          <mxGeometry relative="1" as="geometry" />
        </mxCell>
        <mxCell id="Cf_0SbYmezYFUAePnX9f-6" value="countOfLen3 = 0&lt;br&gt;index = 0" style="shape=parallelogram;perimeter=parallelogramPerimeter;whiteSpace=wrap;html=1;fixedSize=1;" vertex="1" parent="1">
          <mxGeometry x="320" y="260" width="120" height="60" as="geometry" />
        </mxCell>
        <mxCell id="Cf_0SbYmezYFUAePnX9f-7" style="edgeStyle=orthogonalEdgeStyle;rounded=0;orthogonalLoop=1;jettySize=auto;html=1;exitX=0;exitY=0.5;exitDx=0;exitDy=0;entryX=1;entryY=0.5;entryDx=0;entryDy=0;" edge="1" parent="1" source="Cf_0SbYmezYFUAePnX9f-9" target="Cf_0SbYmezYFUAePnX9f-11">
          <mxGeometry relative="1" as="geometry" />
        </mxCell>
        <mxCell id="Cf_0SbYmezYFUAePnX9f-8" style="edgeStyle=orthogonalEdgeStyle;rounded=0;orthogonalLoop=1;jettySize=auto;html=1;exitX=1;exitY=0.5;exitDx=0;exitDy=0;entryX=0;entryY=0.5;entryDx=0;entryDy=0;" edge="1" parent="1" source="Cf_0SbYmezYFUAePnX9f-9" target="Cf_0SbYmezYFUAePnX9f-17">
          <mxGeometry relative="1" as="geometry" />
        </mxCell>
        <mxCell id="Cf_0SbYmezYFUAePnX9f-9" value="index &amp;lt; len" style="rhombus;whiteSpace=wrap;html=1;" vertex="1" parent="1">
          <mxGeometry x="340" y="380" width="80" height="80" as="geometry" />
        </mxCell>
        <mxCell id="Cf_0SbYmezYFUAePnX9f-10" style="edgeStyle=orthogonalEdgeStyle;rounded=0;orthogonalLoop=1;jettySize=auto;html=1;exitX=0.5;exitY=1;exitDx=0;exitDy=0;entryX=0.5;entryY=0;entryDx=0;entryDy=0;" edge="1" parent="1" source="Cf_0SbYmezYFUAePnX9f-11" target="Cf_0SbYmezYFUAePnX9f-13">
          <mxGeometry relative="1" as="geometry" />
        </mxCell>
        <mxCell id="Cf_0SbYmezYFUAePnX9f-11" value="strArr[index].Length &amp;lt;= 3" style="rhombus;whiteSpace=wrap;html=1;" vertex="1" parent="1">
          <mxGeometry x="140" y="365" width="150" height="110" as="geometry" />
        </mxCell>
        <mxCell id="Cf_0SbYmezYFUAePnX9f-12" style="edgeStyle=orthogonalEdgeStyle;rounded=0;orthogonalLoop=1;jettySize=auto;html=1;exitX=1;exitY=0.5;exitDx=0;exitDy=0;entryX=0.5;entryY=1;entryDx=0;entryDy=0;" edge="1" parent="1" source="Cf_0SbYmezYFUAePnX9f-13" target="Cf_0SbYmezYFUAePnX9f-9">
          <mxGeometry relative="1" as="geometry" />
        </mxCell>
        <mxCell id="Cf_0SbYmezYFUAePnX9f-13" value="countOfLen3 =&amp;nbsp;&lt;br&gt;countOfLen3 + 1" style="shape=parallelogram;perimeter=parallelogramPerimeter;whiteSpace=wrap;html=1;fixedSize=1;" vertex="1" parent="1">
          <mxGeometry x="155" y="510" width="120" height="60" as="geometry" />
        </mxCell>
        <mxCell id="Cf_0SbYmezYFUAePnX9f-14" value="Yes" style="text;html=1;strokeColor=none;fillColor=none;align=center;verticalAlign=middle;whiteSpace=wrap;rounded=0;" vertex="1" parent="1">
          <mxGeometry x="290" y="390" width="60" height="30" as="geometry" />
        </mxCell>
        <mxCell id="Cf_0SbYmezYFUAePnX9f-15" style="edgeStyle=orthogonalEdgeStyle;rounded=0;orthogonalLoop=1;jettySize=auto;html=1;exitX=1;exitY=0.5;exitDx=0;exitDy=0;entryX=0;entryY=0.5;entryDx=0;entryDy=0;" edge="1" parent="1" source="Cf_0SbYmezYFUAePnX9f-17" target="Cf_0SbYmezYFUAePnX9f-19">
          <mxGeometry relative="1" as="geometry" />
        </mxCell>
        <mxCell id="Cf_0SbYmezYFUAePnX9f-16" style="edgeStyle=orthogonalEdgeStyle;rounded=0;orthogonalLoop=1;jettySize=auto;html=1;exitX=0.5;exitY=1;exitDx=0;exitDy=0;entryX=0.5;entryY=0;entryDx=0;entryDy=0;" edge="1" parent="1" source="Cf_0SbYmezYFUAePnX9f-17" target="Cf_0SbYmezYFUAePnX9f-22">
          <mxGeometry relative="1" as="geometry" />
        </mxCell>
        <mxCell id="Cf_0SbYmezYFUAePnX9f-17" value="countOfLen3 != 0" style="rhombus;whiteSpace=wrap;html=1;" vertex="1" parent="1">
          <mxGeometry x="497" y="375" width="106" height="90" as="geometry" />
        </mxCell>
        <mxCell id="Cf_0SbYmezYFUAePnX9f-18" value="No" style="text;html=1;strokeColor=none;fillColor=none;align=center;verticalAlign=middle;whiteSpace=wrap;rounded=0;" vertex="1" parent="1">
          <mxGeometry x="420" y="390" width="60" height="30" as="geometry" />
        </mxCell>
        <mxCell id="Cf_0SbYmezYFUAePnX9f-19" value="End" style="ellipse;whiteSpace=wrap;html=1;" vertex="1" parent="1">
          <mxGeometry x="700" y="380" width="120" height="80" as="geometry" />
        </mxCell>
        <mxCell id="Cf_0SbYmezYFUAePnX9f-20" value="No" style="text;html=1;strokeColor=none;fillColor=none;align=center;verticalAlign=middle;whiteSpace=wrap;rounded=0;" vertex="1" parent="1">
          <mxGeometry x="620" y="390" width="60" height="30" as="geometry" />
        </mxCell>
        <mxCell id="Cf_0SbYmezYFUAePnX9f-21" style="edgeStyle=orthogonalEdgeStyle;rounded=0;orthogonalLoop=1;jettySize=auto;html=1;exitX=0.5;exitY=1;exitDx=0;exitDy=0;entryX=0.5;entryY=0;entryDx=0;entryDy=0;" edge="1" parent="1" source="Cf_0SbYmezYFUAePnX9f-22" target="Cf_0SbYmezYFUAePnX9f-26">
          <mxGeometry relative="1" as="geometry" />
        </mxCell>
        <mxCell id="Cf_0SbYmezYFUAePnX9f-22" value="newStrArr[countOfLen3]&lt;br&gt;index,&lt;br&gt;index2" style="shape=parallelogram;perimeter=parallelogramPerimeter;whiteSpace=wrap;html=1;fixedSize=1;" vertex="1" parent="1">
          <mxGeometry x="470" y="510" width="160" height="60" as="geometry" />
        </mxCell>
        <mxCell id="Cf_0SbYmezYFUAePnX9f-23" value="Yes" style="text;html=1;strokeColor=none;fillColor=none;align=center;verticalAlign=middle;whiteSpace=wrap;rounded=0;" vertex="1" parent="1">
          <mxGeometry x="540" y="465" width="60" height="30" as="geometry" />
        </mxCell>
        <mxCell id="Cf_0SbYmezYFUAePnX9f-24" style="edgeStyle=orthogonalEdgeStyle;rounded=0;orthogonalLoop=1;jettySize=auto;html=1;exitX=0.5;exitY=1;exitDx=0;exitDy=0;entryX=0.5;entryY=0;entryDx=0;entryDy=0;" edge="1" parent="1" source="Cf_0SbYmezYFUAePnX9f-26" target="Cf_0SbYmezYFUAePnX9f-28">
          <mxGeometry relative="1" as="geometry" />
        </mxCell>
        <mxCell id="Cf_0SbYmezYFUAePnX9f-25" value="" style="edgeStyle=orthogonalEdgeStyle;rounded=0;orthogonalLoop=1;jettySize=auto;html=1;" edge="1" parent="1" source="Cf_0SbYmezYFUAePnX9f-26" target="Cf_0SbYmezYFUAePnX9f-35">
          <mxGeometry relative="1" as="geometry" />
        </mxCell>
        <mxCell id="Cf_0SbYmezYFUAePnX9f-26" value="index &amp;lt; len&lt;br&gt;" style="rhombus;whiteSpace=wrap;html=1;" vertex="1" parent="1">
          <mxGeometry x="510" y="610" width="80" height="80" as="geometry" />
        </mxCell>
        <mxCell id="Cf_0SbYmezYFUAePnX9f-27" style="edgeStyle=orthogonalEdgeStyle;rounded=0;orthogonalLoop=1;jettySize=auto;html=1;exitX=0.5;exitY=1;exitDx=0;exitDy=0;" edge="1" parent="1" source="Cf_0SbYmezYFUAePnX9f-28" target="Cf_0SbYmezYFUAePnX9f-30">
          <mxGeometry relative="1" as="geometry" />
        </mxCell>
        <mxCell id="Cf_0SbYmezYFUAePnX9f-28" value="strArr[index].Length &amp;lt;=3" style="rhombus;whiteSpace=wrap;html=1;" vertex="1" parent="1">
          <mxGeometry x="477" y="720" width="146" height="90" as="geometry" />
        </mxCell>
        <mxCell id="Cf_0SbYmezYFUAePnX9f-29" style="edgeStyle=orthogonalEdgeStyle;rounded=0;orthogonalLoop=1;jettySize=auto;html=1;exitX=1;exitY=0.5;exitDx=0;exitDy=0;entryX=1;entryY=0.5;entryDx=0;entryDy=0;" edge="1" parent="1" source="Cf_0SbYmezYFUAePnX9f-30" target="Cf_0SbYmezYFUAePnX9f-26">
          <mxGeometry relative="1" as="geometry">
            <mxPoint x="670" y="640" as="targetPoint" />
            <Array as="points">
              <mxPoint x="660" y="885" />
              <mxPoint x="660" y="650" />
            </Array>
          </mxGeometry>
        </mxCell>
        <mxCell id="Cf_0SbYmezYFUAePnX9f-30" value="newStrArr[index2] =&lt;br&gt;strArr[index]&lt;br&gt;index2 = index2 + 1" style="shape=parallelogram;perimeter=parallelogramPerimeter;whiteSpace=wrap;html=1;fixedSize=1;" vertex="1" parent="1">
          <mxGeometry x="475" y="850" width="150" height="70" as="geometry" />
        </mxCell>
        <mxCell id="Cf_0SbYmezYFUAePnX9f-31" value="Yes" style="text;html=1;strokeColor=none;fillColor=none;align=center;verticalAlign=middle;whiteSpace=wrap;rounded=0;" vertex="1" parent="1">
          <mxGeometry x="543" y="690" width="60" height="30" as="geometry" />
        </mxCell>
        <mxCell id="Cf_0SbYmezYFUAePnX9f-32" value="Yes" style="text;html=1;strokeColor=none;fillColor=none;align=center;verticalAlign=middle;whiteSpace=wrap;rounded=0;" vertex="1" parent="1">
          <mxGeometry x="543" y="810" width="60" height="30" as="geometry" />
        </mxCell>
        <mxCell id="Cf_0SbYmezYFUAePnX9f-33" value="No" style="text;html=1;strokeColor=none;fillColor=none;align=center;verticalAlign=middle;whiteSpace=wrap;rounded=0;" vertex="1" parent="1">
          <mxGeometry x="450" y="620" width="60" height="30" as="geometry" />
        </mxCell>
        <mxCell id="Cf_0SbYmezYFUAePnX9f-34" style="edgeStyle=orthogonalEdgeStyle;rounded=0;orthogonalLoop=1;jettySize=auto;html=1;exitX=0.5;exitY=1;exitDx=0;exitDy=0;entryX=0.5;entryY=0;entryDx=0;entryDy=0;" edge="1" parent="1" source="Cf_0SbYmezYFUAePnX9f-35" target="Cf_0SbYmezYFUAePnX9f-36">
          <mxGeometry relative="1" as="geometry" />
        </mxCell>
        <mxCell id="Cf_0SbYmezYFUAePnX9f-35" value="newStrArr" style="shape=parallelogram;perimeter=parallelogramPerimeter;whiteSpace=wrap;html=1;fixedSize=1;" vertex="1" parent="1">
          <mxGeometry x="330" y="620" width="120" height="60" as="geometry" />
        </mxCell>
        <mxCell id="Cf_0SbYmezYFUAePnX9f-36" value="End" style="ellipse;whiteSpace=wrap;html=1;" vertex="1" parent="1">
          <mxGeometry x="330" y="740" width="120" height="80" as="geometry" />
        </mxCell>
        <mxCell id="Cf_0SbYmezYFUAePnX9f-37" value="Написать программу, которая из имеющегося массива строк формирует новый массив из строк, длина которых меньше, либо равна 3 символам. Первоначальный массив можно ввести с клавиатуры, либо задать на старте выполнения алгоритма. При решении не рекомендуется пользоваться коллекциями, лучше обойтись исключительно массивами." style="text;html=1;strokeColor=none;fillColor=none;align=center;verticalAlign=middle;whiteSpace=wrap;rounded=0;" vertex="1" parent="1">
          <mxGeometry x="475" y="40" width="340" height="30" as="geometry" />
        </mxCell>
      </root>
    </mxGraphModel>
  </diagram>
</mxfile>
